<?xml version="1.0" encoding="utf-8"?>
<!-- Generator: Adobe Illustrator 23.0.2, SVG Export Plug-In . SVG Version: 6.00 Build 0)  -->
<svg version="1.1" id="Layer_1" xmlns="http://www.w3.org/2000/svg" xmlns:xlink="http://www.w3.org/1999/xlink" x="0px" y="0px"
	 viewBox="0 0 963.4 272.1" style="enable-background:new 0 0 963.4 272.1;" xml:space="preserve">
<style type="text/css">
	.st0{fill:#EE1D52;}
	.st1{fill:#FFFFFF;}
	.st2{fill:#69C9D0;}
</style>
<path d="M191.4,36.9h-134c-11.3,0-20.5,9.2-20.5,20.5v134c0,11.3,9.2,20.5,20.5,20.5h113.4l-5.3-18.3l12.8,11.8l12.1,11.1l21.6,18.7
	V57.4C211.9,46.1,202.7,36.9,191.4,36.9z"/>
<g>
	<path class="st0" d="M76.5,166.3l0.4,1.1C76.8,167.2,76.7,166.8,76.5,166.3z M91.7,141.6c0.7-5.8,3-9.1,7.3-12.5
		c6.2-4.5,13.9-2,13.9-2v-15.3c1.9-0.1,3.8,0.1,5.6,0.3v19.6c0,0-7.7-2.6-13.9,2c-4.3,3.4-6.6,6.6-7.3,12.5c0,3.2,0.6,7.3,3.2,10.9
		c-0.7-0.3-1.3-0.7-2-1.2C92.8,152,91.7,145.9,91.7,141.6L91.7,141.6z M150.6,83.7c-4.3-4.9-5.9-9.8-6.5-13.3h5.4
		c0,0-1.1,9.1,6.7,18l0.1,0.1C154.2,87.1,152.3,85.5,150.6,83.7z M176.4,97.5v19.2c0,0-6.8-0.3-11.9-1.6c-7.1-1.9-11.6-4.8-11.6-4.8
		s-3.1-2.1-3.4-2.2v39.7c0,2.2-0.6,7.7-2.4,12.3c-2.3,6-5.9,10-6.5,10.8c0,0-4.3,5.3-12,8.9c-6.9,3.2-13,3.2-14.8,3.2
		c0,0-10.5,0.4-19.9-6c-2-1.4-3.9-3-5.7-4.8l0,0c9.4,6.4,19.9,6,19.9,6c1.8-0.1,7.9,0,14.8-3.2c7.6-3.6,12-8.9,12-8.9
		c0.6-0.8,4.2-4.8,6.5-10.8c1.8-4.6,2.4-10.1,2.4-12.3v-39.7c0.3,0.1,3.4,2.2,3.4,2.2s4.5,2.9,11.6,4.8c5.1,1.3,11.9,1.6,11.9,1.6
		V96.9C173.1,97.5,175.1,97.6,176.4,97.5L176.4,97.5z"/>
	<path class="st1" d="M170.8,96.9V112c0,0-6.8-0.3-11.9-1.6c-7.1-1.9-11.6-4.8-11.6-4.8s-3.1-2.1-3.4-2.2v39.7
		c0,2.2-0.6,7.7-2.4,12.3c-2.3,6-5.9,10-6.5,10.8c0,0-4.3,5.3-12,8.9c-6.9,3.2-12.9,3.2-14.8,3.2c0,0-10.5,0.4-19.9-6l0,0
		c-1-1-1.9-2.1-2.8-3.2c-3-3.8-4.8-8.3-5.3-9.6c0,0,0,0,0,0c-0.7-2.2-2.3-7.6-2.1-12.8c0.4-9.2,3.5-14.9,4.3-16.3
		c2.2-3.9,5-7.3,8.4-10.2c3-2.5,6.3-4.5,9.9-5.9c3.9-1.6,8.1-2.5,12.3-2.6v15.3c0,0-7.7-2.6-13.9,2c-4.3,3.4-6.6,6.6-7.3,12.5
		c0,4.3,1,10.4,6.8,14.5c0.7,0.4,1.3,0.8,2,1.2c1,1.4,2.2,2.6,3.6,3.5c5.7,3.7,10.4,4,16.5,1.6c4-1.6,7.1-5.3,8.5-9.3
		c0.9-2.5,0.9-5.1,0.9-7.7V70.4h14.1c0.6,3.5,2.2,8.4,6.5,13.3c1.7,1.8,3.6,3.5,5.7,4.8c0.6,0.7,3.8,4,7.9,6
		C166.3,95.6,168.5,96.4,170.8,96.9z"/>
	<path class="st2" d="M100.7,114.5c-3.6,1.4-7,3.4-9.9,5.9c-3.4,2.9-6.2,6.4-8.3,10.2c-0.8,1.4-3.9,7.1-4.3,16.3
		c-0.2,5.2,1.4,10.6,2.1,12.8c0,0,0,0,0,0c0.5,1.3,2.3,5.8,5.3,9.6c0.9,1.1,1.8,2.2,2.8,3.2c-3.2-2.2-6-4.9-8.4-7.9
		c-3-3.8-4.8-8.3-5.3-9.6c0,0,0,0,0,0v0c-0.7-2.2-2.3-7.6-2.1-12.9c0.4-9.2,3.5-14.9,4.3-16.3c2.2-3.9,5-7.3,8.3-10.2
		c3-2.5,6.3-4.5,9.9-5.9c2.3-0.9,4.6-1.6,7-2.1c3.6-0.6,7.3-0.7,10.9-0.2v4.3C108.8,112,104.6,112.8,100.7,114.5z M144.1,70.4H130
		v74.9c0,2.6,0,5.2-0.9,7.7c-1.4,4-4.5,7.7-8.5,9.3c-6.1,2.4-10.8,2.2-16.5-1.6c-1.4-1-2.6-2.2-3.7-3.5c4.8,2.6,9.1,2.5,14.5,0.4
		c4-1.6,7.1-5.3,8.5-9.3c0.9-2.5,0.9-5.1,0.9-7.7V65.7h19.5C143.9,65.7,143.6,67.6,144.1,70.4z M170.8,92.8v4.2
		c-2.3-0.5-4.5-1.3-6.6-2.4c-4.1-2-7.2-5.3-7.9-6c0.7,0.5,1.5,0.9,2.2,1.3C163.5,92.3,168.4,93,170.8,92.8L170.8,92.8z"/>
</g>
<g>
	<path d="M316.8,101v67.5h-22.7V101h-23.5V79.7h69.7V101H316.8z"/>
	<path d="M371.5,168.5h-22.4V79.8h22.4V168.5z"/>
	<path d="M432.1,79.8H460l-35,42.8l34.9,45.8h-28.4l-22.7-31.7l-0.8,1v30.7h-22.5V79.8H408v32.8L432.1,79.8z"/>
	<path d="M506.6,101v67.5h-22.7V101h-23.5V79.7h69.7V101H506.6z"/>
	<path d="M536,109c0-20.4,18.3-30.4,36.7-30.4s36.8,10.1,36.8,30.4v30.3c0,20.3-18.3,30.4-36.7,30.4c-18.4,0-36.8-10.1-36.8-30.4
		V109z M558.4,139.3c0,6.5,7.3,9.6,14.4,9.6c7.1,0,14.3-3.3,14.3-9.6V109c0-6.9-7.4-10-14.6-10c-7,0-14,3.5-14,10V139.3z"/>
	<path d="M667.9,79.8h27.9l-35.1,42.8l34.9,45.8h-28.4l-22.7-31.7l-0.8,1v30.7h-22.5V79.8h22.5v32.8L667.9,79.8z"/>
	<path d="M756.7,121.3c12.1,6.1,13.6,17.5,12.5,24.3c-2.3,14.3-11.9,22.9-31.5,22.9h-36.2V79.8H737c16.9,0,29.3,10.1,28.8,27
		C765.7,110.9,763,118,756.7,121.3z M737,114.5c10.9,0,11.3-15.8,0-15.8h-13v15.8H737z M737,148.8c13.5,0,13.3-18.2,0-18.2h-13v18.2
		H737z"/>
	<path d="M777.4,109c0-20.4,18.3-30.4,36.7-30.4s36.8,10.1,36.8,30.4v30.3c0,20.3-18.3,30.4-36.7,30.4c-18.4,0-36.8-10.1-36.8-30.4
		V109z M799.8,139.3c0,6.5,7.3,9.6,14.4,9.6c7.1,0,14.3-3.3,14.3-9.6V109c0-6.9-7.4-10-14.6-10c-7,0-14,3.5-14,10V139.3z"/>
	<path d="M903,101v67.5h-22.7V101h-23.5V79.7h69.7V101H903z"/>
</g>
</svg>
